# xmcd
#
# Track frame offsets:
#	150
#	14349
#	26100
#	42050
#	58606
#	74343
#	90847
#	103861
#	115671
#	130163
#	143666
#	159429
#	174972
#	191638
#	204896
#	222942
#
# Disc length: 3189 seconds
#
# Revision: 0
# Processed by: cddbd v1.5.2PL0 Copyright (c) Steve Scherf et al.
# Submitted via: EasyCDDAExtractor 16.0.9.1
#
DISCID=d10c7310
DTITLE=Nu Country Traxx Volume 193 US
DYEAR=2015
DGENRE=country
TTITLE0=Cole Swindell\n - Let Me See Ya Girl\n
TTITLE1=Zac Brown Band\n - Loving You Easy\n
TTITLE2=George Strait\n - Let It Go\n
TTITLE3=Toby Keith\n - 35 Mph Town\n
TTITLE4=Old Dominion\n - Break Up With Him\n
TTITLE5=Tebey\n - When The Buzz Wears Off\n
TTITLE6=Thompson Square\n - Trans Am\n
TTITLE7=Brett Eldredge\n - Lose My Mind\n
TTITLE8=Thomas Rhett\n - Crash And Burn\n
TTITLE9=Chris Janson\n - Buy Me A Boat\n
TTITLE10=Corey Smith\n - Feet Wet\n
TTITLE11=Bobby Wills\n - So Much For Taking It Slow\n
TTITLE12=Chris Stapleton\n - Traveller\n
TTITLE13=Tim Chaisson\n - Crushed\n
TTITLE14=Davisson Brothers Band\n - Jesse James\n
TTITLE15=Josh Goodlett\n - Why You Gotta Be That Way\n
EXTD=
EXTT0=
EXTT1=
EXTT2=
EXTT3=
EXTT4=
EXTT5=
EXTT6=
EXTT7=
EXTT8=
EXTT9=
EXTT10=
EXTT11=
EXTT12=
EXTT13=
EXTT14=
EXTT15=
PLAYORDER=
